<?xml version="1.0" standalone="no"?>
<svg viewBox="0 0 200 200" xmlns="http://www.w3.org/2000/svg">
  <path fill="#FFEDA0" d="M38.1,-58C47.6,-53.2,52.3,-39.6,58.5,-26.5C64.8,-13.5,72.6,-1,68.9,8.4C65.3,17.8,50.2,24.1,39.4,31.1C28.6,38.1,22.1,45.7,14.3,47.4C6.5,49.2,-2.7,44.9,-10.5,40.5C-18.3,36.1,-24.7,31.5,-35.4,26.5C-46.1,21.6,-61.2,16.3,-62.8,8.7C-64.4,1.1,-52.5,-8.7,-45.5,-19.4C-38.5,-30.2,-36.4,-41.8,-29.7,-47.9C-22.9,-54,-11.5,-54.5,1.4,-56.7C14.3,-58.9,28.6,-62.8,38.1,-58Z" transform="translate(100 100)" />
</svg>
