<?xml version="1.0" standalone="no"?>
<svg viewBox="0 0 200 200" xmlns="http://www.w3.org/2000/svg">
  <path fill="#C2F292" d="M44.3,-74.1C54.2,-62.5,57.1,-44.9,57.2,-30.3C57.3,-15.7,54.8,-4.1,52.9,7.5C51,19,49.7,30.5,44.1,39.5C38.4,48.5,28.2,55,16.2,61.6C4.1,68.1,-9.9,74.6,-21,71.4C-32.1,68.1,-40.4,55.1,-52.8,44C-65.3,32.8,-82,23.5,-84.5,11.7C-86.9,-0.2,-75.1,-14.5,-64.3,-25.7C-53.5,-36.9,-43.8,-44.9,-33.2,-56.2C-22.7,-67.6,-11.3,-82.3,2.9,-86.8C17.1,-91.3,34.3,-85.7,44.3,-74.1Z" transform="translate(100 100)" />
</svg>
